<svg xmlns="http://www.w3.org/2000/svg" xml:space="preserve" width="512" height="512" viewBox="0 0 64 64"><clipPath id="a"><path fill="#006599" d="M0 0h64v64H0z" opacity="0"/></clipPath><g fill="#fff" clip-path="url(#a)"><path d="M18 16h2v2h-2zm0 32h2v2h-2zm0-20h2v2h-2zm0 24h2v2h-2zm0-28h2v2h-2zm0-4h2v2h-2zm0 12h2v2h-2zm0 24h2v2h-2zm0-16h2v2h-2zm0-4h2v2h-2zm0 8h2v2h-2zm4-20h2v2h-2zm0 4h2v2h-2zm0-12h2v2h-2zm0 16h2v2h-2zm0-12h2v2h-2zm0 36h2v2h-2zm0-4h2v2h-2zm0-8h2v2h-2zm0 4h2v2h-2zm0-12h2v2h-2zm0 4h2v2h-2zm8-32h2v2h-2zm0 8h2v2h-2zm0-4h2v2h-2zm0 12h2v2h-2zm0 4h2v2h-2zm0-8h2v2h-2zm0 12h2v2h-2zm0 12h2v2h-2zm0-4h2v2h-2zm0 8h2v2h-2zm0 4h2v2h-2zm0-48h2v2h-2zm0 32h2v2h-2zm12 4h2v2h-2zm0-8h2v2h-2zm0-8h2v2h-2zm0-8h2v2h-2zm0 20h2v2h-2zm0-16h2v2h-2zm0 8h2v2h-2zm0 28h2v2h-2zm0-4h2v2h-2zm0-4h2v2h-2zm0-4h2v2h-2zm4 12h2v2h-2zm0-40h2v2h-2zm0 36h2v2h-2zm0-32h2v2h-2zm0 28h2v2h-2zm0-4h2v2h-2zm0-4h2v2h-2zm0-16h2v2h-2zm0 8h2v2h-2zm0-4h2v2h-2zm0 8h2v2h-2zM34 12h2v2h-2zm0 4h2v2h-2zm0-12h2v2h-2zm0 4h2v2h-2zm0 36h2v2h-2zm0-8h2v2h-2zm0-8h2v2h-2zm0 20h2v2h-2zm0-16h2v2h-2zm0-12h2v2h-2zm0 20h2v2h-2zm0-16h2v2h-2zm0 28h2v2h-2zM26 4h2v2h-2zm12 0h2v2h-2z"/><path d="M16 64h48v-2H52V10h-6V0H20v10h-6v52H0v2h14zm16-2v-4h2v4zm18-50v50H40V12zM22 2h22v8h-6v52h-2v-6h-6v6h-2V10h-6zm-6 10h10v50H16z"/></g></svg>