<svg xmlns="http://www.w3.org/2000/svg" width="80" height="80" fill="none" viewBox="0 0 24 24"><path stroke="#006599" stroke-width="2" d="M12 8.5a3.5 3.5 0 1 0 0 7 3.5 3.5 0 0 0 0-7Z"/><path stroke="#006599" stroke-width="2" d="M19.4 12.97c.06-.3.1-.63.1-.97s-.04-.67-.1-.97l2.14-1.66c.28-.21.36-.59.18-.9l-2-2.94c-.2-.33-.6-.41-.92-.24L16.34 6.5c-.52-.36-1.07-.64-1.68-.83L14.33 3c-.04-.33-.31-.6-.65-.6h-3.36c-.34 0-.61.27-.65.6l-.33 2.67c-.61.19-1.16.47-1.68.83L5.2 5.29c-.32-.17-.72-.09-.92.24l-2 2.94c-.18.31-.1.69.18.9l2.14 1.66c-.06.3-.1.63-.1.97s.04.67.1.97l-2.14 1.66c-.28.21-.36.59-.18.9l2 2.94c.2.33.6.41.92.24l2.46-1.21c.52.36 1.07.64 1.68.83L9.67 21c.04.33.31.6.65.6h3.36c.34 0 .61-.27.65-.6l.33-2.67c.61-.19 1.16-.47 1.68-.83l2.46 1.21c.32.17.72.09.92-.24l2-2.94c.18-.31.1-.69-.18-.9z"/></svg>