<svg xmlns="http://www.w3.org/2000/svg" xml:space="preserve" width="512" height="512" viewBox="0 0 512 512"><path fill="#006599" d="M456.599 316.05a22.55 22.55 0 0 0-16.009-6.606h-.065c-6.065.017-11.761 2.395-16.049 6.707l-68.425 69.107-30.848-30.848c-8.868-8.868-23.3-8.867-32.168 0-4.296 4.296-6.662 10.008-6.662 16.084s2.366 11.788 6.662 16.084l46.983 46.983c4.296 4.296 10.008 6.662 16.084 6.662s11.788-2.366 16.085-6.662c18.317-18.318 36.821-37.086 54.716-55.235 9.928-10.069 19.854-20.138 29.784-30.166a22.56 22.56 0 0 0 6.605-16.074 22.56 22.56 0 0 0-6.693-16.036m-11.269 20.841a19787 19787 0 0 0-29.82 30.202c-17.875 18.13-36.358 36.877-54.636 55.155-1.274 1.274-2.969 1.976-4.771 1.976s-3.496-.702-4.77-1.976l-46.983-46.983h-.001c-1.273-1.274-1.976-2.968-1.976-4.77s.702-3.496 1.976-4.77c1.315-1.315 3.043-1.973 4.771-1.973s3.455.658 4.77 1.973l36.532 36.533a8 8 0 0 0 5.657 2.343h.02a8 8 0 0 0 5.665-2.371l74.069-74.808a6.66 6.66 0 0 1 4.736-1.977h.019c1.784 0 3.463.692 4.729 1.951a6.66 6.66 0 0 1 1.977 4.736 6.68 6.68 0 0 1-1.964 4.759m-38.866-95.537v-26.877l7.902 5.741a41.77 41.77 0 0 0 24.584 7.974c13.015 0 25.856-6.017 34.059-17.337 13.586-18.749 9.386-45.055-9.355-58.635L265.8 8.471c-14.823-11.196-34.882-11.393-49.947-.474L17.354 152.214C-1.395 165.8-5.595 192.106 7.991 210.855s39.895 22.948 58.642 9.363l.008-.006 7.895-5.736v171.301c0 31.212 25.393 56.605 56.604 56.605h124.35C279.092 483.918 323.742 512 374.833 512 450.467 512 512 450.467 512 374.833c0-64.75-45.101-119.159-105.536-133.479m-349.22-34.091c-11.604 8.408-27.887 5.81-36.298-5.795-8.408-11.605-5.809-27.888 5.805-36.303L225.249 20.946c9.19-6.659 21.918-6.526 30.951.324l.132.098L454.257 165.17c11.605 8.409 14.205 24.692 5.797 36.297-8.41 11.606-24.693 14.206-36.291 5.802L245.202 77.536c-1.401-1.019-3.052-1.528-4.702-1.528s-3.301.509-4.702 1.528zm33.291 178.515V202.853L240.5 93.897l149.964 108.956v35.71a138 138 0 0 0-15.631-.896c-29.918 0-57.625 9.635-80.195 25.956-3.433-13.3-15.532-23.154-29.889-23.154h-48.498c-17.019 0-30.864 13.845-30.864 30.863v155.051H131.14c-22.39 0-40.605-18.215-40.605-40.605m110.852 40.605V271.332c0-8.196 6.668-14.863 14.864-14.863h48.498c8.196 0 14.864 6.667 14.864 14.863v4.869c-25.846 24.96-41.947 59.949-41.947 98.632 0 18.225 3.582 35.627 10.063 51.55zM374.833 496c-66.812 0-121.167-54.355-121.167-121.167s54.355-121.167 121.167-121.167S496 308.021 496 374.833 441.645 496 374.833 496"/></svg>